<?xml version="1.0" encoding="utf-8"?>
<!-- Generator: Adobe Illustrator 25.0.1, SVG Export Plug-In . SVG Version: 6.00 Build 0)  -->
<svg version="1.1" id="_x31_0015.io" xmlns="http://www.w3.org/2000/svg" xmlns:xlink="http://www.w3.org/1999/xlink" x="0px"
	 y="0px" viewBox="0 0 480 480" style="enable-background:new 0 0 480 480;" xml:space="preserve">
<style type="text/css">
	.st0{fill:#736CED;}
</style>
<path class="st0" d="M98.5,214c-3.7,21.3-10,42-19,62S60.7,318,50,342s-30.8,29.2-60.5,15.5s-54-10.8-73,8.5s-40.8,28.7-65.5,28
	s-42.7-13.3-54-38c-11.3-24.7-28.3-42.3-51-53s-33.8-28.2-33.5-52.5s-0.3-47.3-2-69s4.3-41.2,18-58.5s24.3-36,32-56
	s21.2-34.7,40.5-44s38.3-25,57-47s39.8-26.5,63.5-13.5S-36.3-8-23,12S1.2,50.3,9.5,67S36.3,95.5,65,102.5s42.3,22,41,45
	S102.2,192.7,98.5,214z"/>
</svg>
